<svg xmlns="http://www.w3.org/2000/svg" xmlns:xlink="http://www.w3.org/1999/xlink" width="500" zoomAndPan="magnify" viewBox="0 0 375 374.999991" height="500" preserveAspectRatio="xMidYMid meet" version="1.0"><defs><g/><clipPath id="68416af523"><path d="M 40 138.429688 L 89 138.429688 L 89 198 L 40 198 Z M 40 138.429688 " clip-rule="nonzero"/></clipPath><clipPath id="38607619bf"><path d="M 71 159 L 101.25 159 L 101.25 198 L 71 198 Z M 71 159 " clip-rule="nonzero"/></clipPath></defs><g clip-path="url(#68416af523)"><path fill="#000000" d="M 88.210938 183.675781 C 88.539062 180.746094 87.695312 177.917969 86.050781 175.226562 C 83.605469 171.210938 79.929688 168.839844 76.277344 167.332031 C 60.445312 160.820312 37.507812 154.753906 45.15625 138.429688 C 45.15625 138.429688 39.652344 145.359375 43.675781 154.9375 C 47.703125 164.511719 73.777344 169.070312 78.003906 173.035156 C 78.003906 173.035156 73.636719 170.296875 58.347656 166.738281 C 43.058594 163.179688 42.242188 159.765625 40.96875 154.292969 C 40.96875 154.292969 39.058594 165.148438 52.34375 168.609375 C 65.628906 172.070312 80.375 173.851562 81.921875 178.324219 C 81.921875 178.324219 81.285156 175.359375 65.355469 172.992188 C 49.425781 170.625 46.152344 170.074219 44.242188 166.425781 C 44.242188 166.425781 43.511719 173.988281 55.527344 174.542969 C 67.542969 175.085938 81.007812 176.363281 83.105469 181.199219 C 83.105469 181.199219 80.828125 177.457031 69.089844 177.097656 C 57.351562 176.734375 52.613281 177.1875 48.429688 174.996094 C 48.429688 174.996094 51.839844 180.789062 61.582031 179.875 C 71.320312 178.960938 80.285156 178.003906 84.289062 184.117188 C 84.289062 184.117188 80.832031 179.007812 68.175781 180.746094 C 55.519531 182.484375 54.070312 181.109375 54.070312 181.109375 C 54.070312 181.109375 56.257812 184.570312 63.085938 183.664062 C 69.910156 182.757812 81.503906 180.789062 83.566406 185.484375 C 86.105469 191.277344 77.742188 197.15625 77.742188 197.15625 C 79.238281 196.101562 80.925781 195.382812 82.378906 194.214844 C 85.5 191.703125 87.75 187.738281 88.210938 183.675781 Z M 88.210938 183.675781 " fill-opacity="1" fill-rule="nonzero"/></g><path fill="#000000" d="M 87.472656 175.085938 C 87.472656 175.085938 91.472656 182.183594 86.972656 190.265625 C 81.390625 200.296875 59.351562 204.453125 59.351562 204.453125 C 59.351562 204.453125 64.226562 205.863281 69.910156 204.09375 C 75.464844 202.359375 83.566406 196.890625 83.566406 196.890625 C 83.566406 196.890625 75.21875 204.042969 69.863281 205.410156 C 66.761719 206.207031 63.992188 206.277344 63.992188 206.277344 C 63.992188 206.277344 70.058594 207.589844 73.910156 206.277344 C 80.09375 204.175781 85.746094 197.15625 85.746094 197.15625 C 85.746094 197.15625 80.289062 205.207031 75.21875 207.140625 C 70.914062 208.78125 67.914062 207.917969 67.914062 207.917969 C 67.914062 207.917969 75.464844 211.929688 80.382812 206.457031 C 85.300781 200.984375 92.1875 191.65625 90.941406 182.15625 C 90.292969 177.324219 87.472656 175.085938 87.472656 175.085938 Z M 87.472656 175.085938 " fill-opacity="1" fill-rule="nonzero"/><g clip-path="url(#38607619bf)"><path fill="#000000" d="M 99.933594 164.628906 C 98.117188 164.03125 95.261719 164.964844 94.621094 164.351562 C 93.972656 163.738281 95.65625 163.09375 97.433594 164.316406 C 97.433594 164.316406 97.121094 162.363281 95.253906 161.433594 C 93.386719 160.5 86.574219 162.054688 85.941406 159.765625 C 85.941406 159.765625 86.617188 162.71875 90.175781 163.003906 C 90.175781 163.003906 86.941406 163.882812 84.496094 167.277344 C 78.242188 164.496094 71.546875 163.855469 71.546875 163.855469 C 76.523438 165.195312 87.570312 167.378906 91.9375 175.714844 C 97.628906 186.558594 90.238281 197.160156 90.238281 197.160156 C 90.238281 197.160156 98.519531 188.25 94.816406 177.402344 C 94.640625 175.625 94.144531 169.675781 94.941406 167.050781 L 94.328125 166.789062 L 94.960938 166.878906 C 94.960938 166.878906 100.414062 164.421875 101.152344 166.296875 C 101.148438 166.296875 101.242188 165.0625 99.933594 164.628906 Z M 99.933594 164.628906 " fill-opacity="1" fill-rule="nonzero"/></g><g fill="#0064d0" fill-opacity="0.302"><g transform="translate(104.441005, 209.032016)"><g><path d="M 6.671875 0 L 6.671875 -45.78125 L 22.171875 -45.78125 C 25.617188 -45.78125 28.617188 -45.144531 31.171875 -43.875 C 33.722656 -42.613281 35.691406 -40.835938 37.078125 -38.546875 C 38.472656 -36.265625 39.171875 -33.550781 39.171875 -30.40625 C 39.171875 -27.269531 38.472656 -24.554688 37.078125 -22.265625 C 35.691406 -19.984375 33.722656 -18.207031 31.171875 -16.9375 C 28.617188 -15.675781 25.617188 -15.046875 22.171875 -15.046875 L 12.421875 -15.046875 L 12.421875 0 Z M 12.421875 -20.40625 L 22.046875 -20.40625 C 29.546875 -20.40625 33.296875 -23.71875 33.296875 -30.34375 C 33.296875 -36.976562 29.546875 -40.296875 22.046875 -40.296875 L 12.421875 -40.296875 Z M 12.421875 -20.40625 "/></g></g></g><g fill="#0064d0" fill-opacity="0.302"><g transform="translate(146.235027, 209.032016)"><g><path d="M 1.109375 0 L 19.953125 -45.78125 L 25.3125 -45.78125 L 44.15625 0 L 38.0625 0 L 33.75 -10.40625 L 11.453125 -10.40625 L 7.265625 0 Z M 13.671875 -15.765625 L 31.59375 -15.765625 L 22.625 -37.734375 Z M 13.671875 -15.765625 "/></g></g></g><g fill="#0064d0" fill-opacity="0.302"><g transform="translate(191.495532, 209.032016)"><g><path d="M 6.671875 0 L 6.671875 -45.78125 L 12.09375 -45.78125 L 37.40625 -9.9375 L 37.40625 -45.78125 L 43.03125 -45.78125 L 43.03125 0 L 37.671875 0 L 12.359375 -35.84375 L 12.359375 0 Z M 6.671875 0 "/></g></g></g><g fill="#0064d0" fill-opacity="0.302"><g transform="translate(241.203593, 209.032016)"><g><path d="M 6.671875 0 L 6.671875 -45.78125 L 12.421875 -45.78125 L 12.421875 -26.09375 L 18.96875 -26.09375 C 22.0625 -26.09375 24.394531 -26.648438 25.96875 -27.765625 C 27.539062 -28.878906 28.78125 -30.675781 29.6875 -33.15625 L 34.40625 -45.78125 L 40.484375 -45.78125 L 34.859375 -30.875 C 34.203125 -29.125 33.40625 -27.601562 32.46875 -26.3125 C 31.53125 -25.03125 30.410156 -23.957031 29.109375 -23.09375 L 42.25 0 L 35.578125 0 L 23.75 -21 C 22.300781 -20.738281 20.707031 -20.609375 18.96875 -20.609375 L 12.421875 -20.609375 L 12.421875 0 Z M 6.671875 0 "/></g></g></g><g fill="#0064d0" fill-opacity="0.302"><g transform="translate(285.940861, 209.032016)"><g><path d="M 36.6875 0 L 36.6875 -20.609375 L 12.421875 -20.609375 L 12.421875 0 L 6.671875 0 L 6.671875 -45.78125 L 12.421875 -45.78125 L 12.421875 -26.09375 L 36.6875 -26.09375 L 36.6875 -45.78125 L 42.453125 -45.78125 L 42.453125 0 Z M 36.6875 0 "/></g></g></g><g fill="#0064d0" fill-opacity="0.502"><g transform="translate(101.961671, 209.559022)"><g><path d="M 6.671875 0 L 6.671875 -45.78125 L 22.171875 -45.78125 C 25.617188 -45.78125 28.617188 -45.144531 31.171875 -43.875 C 33.722656 -42.613281 35.691406 -40.835938 37.078125 -38.546875 C 38.472656 -36.265625 39.171875 -33.550781 39.171875 -30.40625 C 39.171875 -27.269531 38.472656 -24.554688 37.078125 -22.265625 C 35.691406 -19.984375 33.722656 -18.207031 31.171875 -16.9375 C 28.617188 -15.675781 25.617188 -15.046875 22.171875 -15.046875 L 12.421875 -15.046875 L 12.421875 0 Z M 12.421875 -20.40625 L 22.046875 -20.40625 C 29.546875 -20.40625 33.296875 -23.71875 33.296875 -30.34375 C 33.296875 -36.976562 29.546875 -40.296875 22.046875 -40.296875 L 12.421875 -40.296875 Z M 12.421875 -20.40625 "/></g></g></g><g fill="#0064d0" fill-opacity="0.502"><g transform="translate(143.755693, 209.559022)"><g><path d="M 1.109375 0 L 19.953125 -45.78125 L 25.3125 -45.78125 L 44.15625 0 L 38.0625 0 L 33.75 -10.40625 L 11.453125 -10.40625 L 7.265625 0 Z M 13.671875 -15.765625 L 31.59375 -15.765625 L 22.625 -37.734375 Z M 13.671875 -15.765625 "/></g></g></g><g fill="#0064d0" fill-opacity="0.502"><g transform="translate(189.016198, 209.559022)"><g><path d="M 6.671875 0 L 6.671875 -45.78125 L 12.09375 -45.78125 L 37.40625 -9.9375 L 37.40625 -45.78125 L 43.03125 -45.78125 L 43.03125 0 L 37.671875 0 L 12.359375 -35.84375 L 12.359375 0 Z M 6.671875 0 "/></g></g></g><g fill="#0064d0" fill-opacity="0.502"><g transform="translate(238.724258, 209.559022)"><g><path d="M 6.671875 0 L 6.671875 -45.78125 L 12.421875 -45.78125 L 12.421875 -26.09375 L 18.96875 -26.09375 C 22.0625 -26.09375 24.394531 -26.648438 25.96875 -27.765625 C 27.539062 -28.878906 28.78125 -30.675781 29.6875 -33.15625 L 34.40625 -45.78125 L 40.484375 -45.78125 L 34.859375 -30.875 C 34.203125 -29.125 33.40625 -27.601562 32.46875 -26.3125 C 31.53125 -25.03125 30.410156 -23.957031 29.109375 -23.09375 L 42.25 0 L 35.578125 0 L 23.75 -21 C 22.300781 -20.738281 20.707031 -20.609375 18.96875 -20.609375 L 12.421875 -20.609375 L 12.421875 0 Z M 6.671875 0 "/></g></g></g><g fill="#0064d0" fill-opacity="0.502"><g transform="translate(283.461527, 209.559022)"><g><path d="M 36.6875 0 L 36.6875 -20.609375 L 12.421875 -20.609375 L 12.421875 0 L 6.671875 0 L 6.671875 -45.78125 L 12.421875 -45.78125 L 12.421875 -26.09375 L 36.6875 -26.09375 L 36.6875 -45.78125 L 42.453125 -45.78125 L 42.453125 0 Z M 36.6875 0 "/></g></g></g><g fill="#202a32" fill-opacity="1"><g transform="translate(99.482341, 210.086014)"><g><path d="M 6.671875 0 L 6.671875 -45.78125 L 22.171875 -45.78125 C 25.617188 -45.78125 28.617188 -45.144531 31.171875 -43.875 C 33.722656 -42.613281 35.691406 -40.835938 37.078125 -38.546875 C 38.472656 -36.265625 39.171875 -33.550781 39.171875 -30.40625 C 39.171875 -27.269531 38.472656 -24.554688 37.078125 -22.265625 C 35.691406 -19.984375 33.722656 -18.207031 31.171875 -16.9375 C 28.617188 -15.675781 25.617188 -15.046875 22.171875 -15.046875 L 12.421875 -15.046875 L 12.421875 0 Z M 12.421875 -20.40625 L 22.046875 -20.40625 C 29.546875 -20.40625 33.296875 -23.71875 33.296875 -30.34375 C 33.296875 -36.976562 29.546875 -40.296875 22.046875 -40.296875 L 12.421875 -40.296875 Z M 12.421875 -20.40625 "/></g></g></g><g fill="#202a32" fill-opacity="1"><g transform="translate(141.276363, 210.086014)"><g><path d="M 1.109375 0 L 19.953125 -45.78125 L 25.3125 -45.78125 L 44.15625 0 L 38.0625 0 L 33.75 -10.40625 L 11.453125 -10.40625 L 7.265625 0 Z M 13.671875 -15.765625 L 31.59375 -15.765625 L 22.625 -37.734375 Z M 13.671875 -15.765625 "/></g></g></g><g fill="#202a32" fill-opacity="1"><g transform="translate(186.536868, 210.086014)"><g><path d="M 6.671875 0 L 6.671875 -45.78125 L 12.09375 -45.78125 L 37.40625 -9.9375 L 37.40625 -45.78125 L 43.03125 -45.78125 L 43.03125 0 L 37.671875 0 L 12.359375 -35.84375 L 12.359375 0 Z M 6.671875 0 "/></g></g></g><g fill="#202a32" fill-opacity="1"><g transform="translate(236.244929, 210.086014)"><g><path d="M 6.671875 0 L 6.671875 -45.78125 L 12.421875 -45.78125 L 12.421875 -26.09375 L 18.96875 -26.09375 C 22.0625 -26.09375 24.394531 -26.648438 25.96875 -27.765625 C 27.539062 -28.878906 28.78125 -30.675781 29.6875 -33.15625 L 34.40625 -45.78125 L 40.484375 -45.78125 L 34.859375 -30.875 C 34.203125 -29.125 33.40625 -27.601562 32.46875 -26.3125 C 31.53125 -25.03125 30.410156 -23.957031 29.109375 -23.09375 L 42.25 0 L 35.578125 0 L 23.75 -21 C 22.300781 -20.738281 20.707031 -20.609375 18.96875 -20.609375 L 12.421875 -20.609375 L 12.421875 0 Z M 6.671875 0 "/></g></g></g><g fill="#202a32" fill-opacity="1"><g transform="translate(280.982197, 210.086014)"><g><path d="M 36.6875 0 L 36.6875 -20.609375 L 12.421875 -20.609375 L 12.421875 0 L 6.671875 0 L 6.671875 -45.78125 L 12.421875 -45.78125 L 12.421875 -26.09375 L 36.6875 -26.09375 L 36.6875 -45.78125 L 42.453125 -45.78125 L 42.453125 0 Z M 36.6875 0 "/></g></g></g></svg>