<svg xmlns="http://www.w3.org/2000/svg" xmlns:xlink="http://www.w3.org/1999/xlink" width="500" zoomAndPan="magnify" viewBox="0 0 375 374.999991" height="500" preserveAspectRatio="xMidYMid meet" version="1.0"><defs><g/><clipPath id="c5cbf94a88"><path d="M 40 138.429688 L 89 138.429688 L 89 198 L 40 198 Z M 40 138.429688 " clip-rule="nonzero"/></clipPath><clipPath id="1f10176715"><path d="M 71 159 L 101.25 159 L 101.25 198 L 71 198 Z M 71 159 " clip-rule="nonzero"/></clipPath></defs><g clip-path="url(#c5cbf94a88)"><path fill="#ffffff" d="M 88.339844 183.707031 C 88.667969 180.773438 87.824219 177.945312 86.175781 175.25 C 83.726562 171.234375 80.039062 168.859375 76.378906 167.351562 C 60.503906 160.835938 37.507812 154.765625 45.175781 138.429688 C 45.175781 138.429688 39.65625 145.363281 43.695312 154.945312 C 47.730469 164.527344 73.871094 169.089844 78.109375 173.054688 C 78.109375 173.054688 73.730469 170.316406 58.402344 166.757812 C 43.070312 163.195312 42.253906 159.78125 40.976562 154.304688 C 40.976562 154.304688 39.0625 165.164062 52.382812 168.628906 C 65.699219 172.09375 80.484375 173.871094 82.035156 178.351562 C 82.035156 178.351562 81.398438 175.382812 65.425781 173.015625 C 49.457031 170.644531 46.171875 170.09375 44.257812 166.441406 C 44.257812 166.441406 43.527344 174.011719 55.574219 174.5625 C 67.621094 175.109375 81.121094 176.386719 83.222656 181.226562 C 83.222656 181.226562 80.9375 177.484375 69.171875 177.121094 C 57.402344 176.757812 52.652344 177.210938 48.457031 175.019531 C 48.457031 175.019531 51.878906 180.816406 61.640625 179.898438 C 71.40625 178.984375 80.394531 178.027344 84.410156 184.144531 C 84.410156 184.144531 80.945312 179.035156 68.253906 180.773438 C 55.566406 182.511719 54.113281 181.136719 54.113281 181.136719 C 54.113281 181.136719 56.304688 184.601562 63.152344 183.691406 C 69.996094 182.785156 81.617188 180.816406 83.683594 185.515625 C 86.230469 191.3125 77.84375 197.191406 77.84375 197.191406 C 79.347656 196.136719 81.035156 195.417969 82.496094 194.25 C 85.625 191.738281 87.878906 187.769531 88.339844 183.707031 Z M 88.339844 183.707031 " fill-opacity="1" fill-rule="nonzero"/></g><path fill="#ffffff" d="M 87.601562 175.109375 C 87.601562 175.109375 91.609375 182.210938 87.097656 190.300781 C 81.503906 200.335938 59.40625 204.496094 59.40625 204.496094 C 59.40625 204.496094 64.296875 205.90625 69.996094 204.132812 C 75.5625 202.402344 83.683594 196.925781 83.683594 196.925781 C 83.683594 196.925781 75.316406 204.085938 69.945312 205.453125 C 66.839844 206.25 64.058594 206.320312 64.058594 206.320312 C 64.058594 206.320312 70.140625 207.632812 74.003906 206.320312 C 80.207031 204.21875 85.867188 197.191406 85.867188 197.191406 C 85.867188 197.191406 80.402344 205.25 75.316406 207.1875 C 71 208.828125 67.992188 207.960938 67.992188 207.960938 C 67.992188 207.960938 75.5625 211.976562 80.492188 206.5 C 85.421875 201.027344 92.328125 191.6875 91.078125 182.183594 C 90.429688 177.351562 87.601562 175.109375 87.601562 175.109375 Z M 87.601562 175.109375 " fill-opacity="1" fill-rule="nonzero"/><g clip-path="url(#1f10176715)"><path fill="#ffffff" d="M 100.09375 164.648438 C 98.273438 164.046875 95.410156 164.984375 94.765625 164.367188 C 94.117188 163.753906 95.808594 163.109375 97.589844 164.332031 C 97.589844 164.332031 97.273438 162.378906 95.402344 161.449219 C 93.53125 160.511719 86.699219 162.070312 86.066406 159.78125 C 86.066406 159.78125 86.742188 162.734375 90.3125 163.019531 C 90.3125 163.019531 87.070312 163.898438 84.617188 167.292969 C 78.347656 164.515625 71.636719 163.871094 71.636719 163.871094 C 76.621094 165.214844 87.699219 167.398438 92.078125 175.738281 C 97.785156 186.589844 90.375 197.199219 90.375 197.199219 C 90.375 197.199219 98.675781 188.28125 94.960938 177.429688 C 94.789062 175.648438 94.292969 169.695312 95.085938 167.070312 L 94.472656 166.804688 L 95.109375 166.894531 C 95.109375 166.894531 100.578125 164.4375 101.316406 166.316406 C 101.308594 166.316406 101.40625 165.082031 100.09375 164.648438 Z M 100.09375 164.648438 " fill-opacity="1" fill-rule="nonzero"/></g><g fill="#0064d0" fill-opacity="0.302"><g transform="translate(104.441005, 209.032016)"><g><path d="M 6.671875 0 L 6.671875 -45.78125 L 22.171875 -45.78125 C 25.617188 -45.78125 28.617188 -45.144531 31.171875 -43.875 C 33.722656 -42.613281 35.691406 -40.835938 37.078125 -38.546875 C 38.472656 -36.265625 39.171875 -33.550781 39.171875 -30.40625 C 39.171875 -27.269531 38.472656 -24.554688 37.078125 -22.265625 C 35.691406 -19.984375 33.722656 -18.207031 31.171875 -16.9375 C 28.617188 -15.675781 25.617188 -15.046875 22.171875 -15.046875 L 12.421875 -15.046875 L 12.421875 0 Z M 12.421875 -20.40625 L 22.046875 -20.40625 C 29.546875 -20.40625 33.296875 -23.71875 33.296875 -30.34375 C 33.296875 -36.976562 29.546875 -40.296875 22.046875 -40.296875 L 12.421875 -40.296875 Z M 12.421875 -20.40625 "/></g></g></g><g fill="#0064d0" fill-opacity="0.302"><g transform="translate(146.235027, 209.032016)"><g><path d="M 1.109375 0 L 19.953125 -45.78125 L 25.3125 -45.78125 L 44.15625 0 L 38.0625 0 L 33.75 -10.40625 L 11.453125 -10.40625 L 7.265625 0 Z M 13.671875 -15.765625 L 31.59375 -15.765625 L 22.625 -37.734375 Z M 13.671875 -15.765625 "/></g></g></g><g fill="#0064d0" fill-opacity="0.302"><g transform="translate(191.495532, 209.032016)"><g><path d="M 6.671875 0 L 6.671875 -45.78125 L 12.09375 -45.78125 L 37.40625 -9.9375 L 37.40625 -45.78125 L 43.03125 -45.78125 L 43.03125 0 L 37.671875 0 L 12.359375 -35.84375 L 12.359375 0 Z M 6.671875 0 "/></g></g></g><g fill="#0064d0" fill-opacity="0.302"><g transform="translate(241.203593, 209.032016)"><g><path d="M 6.671875 0 L 6.671875 -45.78125 L 12.421875 -45.78125 L 12.421875 -26.09375 L 18.96875 -26.09375 C 22.0625 -26.09375 24.394531 -26.648438 25.96875 -27.765625 C 27.539062 -28.878906 28.78125 -30.675781 29.6875 -33.15625 L 34.40625 -45.78125 L 40.484375 -45.78125 L 34.859375 -30.875 C 34.203125 -29.125 33.40625 -27.601562 32.46875 -26.3125 C 31.53125 -25.03125 30.410156 -23.957031 29.109375 -23.09375 L 42.25 0 L 35.578125 0 L 23.75 -21 C 22.300781 -20.738281 20.707031 -20.609375 18.96875 -20.609375 L 12.421875 -20.609375 L 12.421875 0 Z M 6.671875 0 "/></g></g></g><g fill="#0064d0" fill-opacity="0.302"><g transform="translate(285.940861, 209.032016)"><g><path d="M 36.6875 0 L 36.6875 -20.609375 L 12.421875 -20.609375 L 12.421875 0 L 6.671875 0 L 6.671875 -45.78125 L 12.421875 -45.78125 L 12.421875 -26.09375 L 36.6875 -26.09375 L 36.6875 -45.78125 L 42.453125 -45.78125 L 42.453125 0 Z M 36.6875 0 "/></g></g></g><g fill="#0064d0" fill-opacity="0.502"><g transform="translate(101.961671, 209.559022)"><g><path d="M 6.671875 0 L 6.671875 -45.78125 L 22.171875 -45.78125 C 25.617188 -45.78125 28.617188 -45.144531 31.171875 -43.875 C 33.722656 -42.613281 35.691406 -40.835938 37.078125 -38.546875 C 38.472656 -36.265625 39.171875 -33.550781 39.171875 -30.40625 C 39.171875 -27.269531 38.472656 -24.554688 37.078125 -22.265625 C 35.691406 -19.984375 33.722656 -18.207031 31.171875 -16.9375 C 28.617188 -15.675781 25.617188 -15.046875 22.171875 -15.046875 L 12.421875 -15.046875 L 12.421875 0 Z M 12.421875 -20.40625 L 22.046875 -20.40625 C 29.546875 -20.40625 33.296875 -23.71875 33.296875 -30.34375 C 33.296875 -36.976562 29.546875 -40.296875 22.046875 -40.296875 L 12.421875 -40.296875 Z M 12.421875 -20.40625 "/></g></g></g><g fill="#0064d0" fill-opacity="0.502"><g transform="translate(143.755693, 209.559022)"><g><path d="M 1.109375 0 L 19.953125 -45.78125 L 25.3125 -45.78125 L 44.15625 0 L 38.0625 0 L 33.75 -10.40625 L 11.453125 -10.40625 L 7.265625 0 Z M 13.671875 -15.765625 L 31.59375 -15.765625 L 22.625 -37.734375 Z M 13.671875 -15.765625 "/></g></g></g><g fill="#0064d0" fill-opacity="0.502"><g transform="translate(189.016198, 209.559022)"><g><path d="M 6.671875 0 L 6.671875 -45.78125 L 12.09375 -45.78125 L 37.40625 -9.9375 L 37.40625 -45.78125 L 43.03125 -45.78125 L 43.03125 0 L 37.671875 0 L 12.359375 -35.84375 L 12.359375 0 Z M 6.671875 0 "/></g></g></g><g fill="#0064d0" fill-opacity="0.502"><g transform="translate(238.724258, 209.559022)"><g><path d="M 6.671875 0 L 6.671875 -45.78125 L 12.421875 -45.78125 L 12.421875 -26.09375 L 18.96875 -26.09375 C 22.0625 -26.09375 24.394531 -26.648438 25.96875 -27.765625 C 27.539062 -28.878906 28.78125 -30.675781 29.6875 -33.15625 L 34.40625 -45.78125 L 40.484375 -45.78125 L 34.859375 -30.875 C 34.203125 -29.125 33.40625 -27.601562 32.46875 -26.3125 C 31.53125 -25.03125 30.410156 -23.957031 29.109375 -23.09375 L 42.25 0 L 35.578125 0 L 23.75 -21 C 22.300781 -20.738281 20.707031 -20.609375 18.96875 -20.609375 L 12.421875 -20.609375 L 12.421875 0 Z M 6.671875 0 "/></g></g></g><g fill="#0064d0" fill-opacity="0.502"><g transform="translate(283.461527, 209.559022)"><g><path d="M 36.6875 0 L 36.6875 -20.609375 L 12.421875 -20.609375 L 12.421875 0 L 6.671875 0 L 6.671875 -45.78125 L 12.421875 -45.78125 L 12.421875 -26.09375 L 36.6875 -26.09375 L 36.6875 -45.78125 L 42.453125 -45.78125 L 42.453125 0 Z M 36.6875 0 "/></g></g></g><g fill="#ffffff" fill-opacity="1"><g transform="translate(99.482341, 210.086014)"><g><path d="M 6.671875 0 L 6.671875 -45.78125 L 22.171875 -45.78125 C 25.617188 -45.78125 28.617188 -45.144531 31.171875 -43.875 C 33.722656 -42.613281 35.691406 -40.835938 37.078125 -38.546875 C 38.472656 -36.265625 39.171875 -33.550781 39.171875 -30.40625 C 39.171875 -27.269531 38.472656 -24.554688 37.078125 -22.265625 C 35.691406 -19.984375 33.722656 -18.207031 31.171875 -16.9375 C 28.617188 -15.675781 25.617188 -15.046875 22.171875 -15.046875 L 12.421875 -15.046875 L 12.421875 0 Z M 12.421875 -20.40625 L 22.046875 -20.40625 C 29.546875 -20.40625 33.296875 -23.71875 33.296875 -30.34375 C 33.296875 -36.976562 29.546875 -40.296875 22.046875 -40.296875 L 12.421875 -40.296875 Z M 12.421875 -20.40625 "/></g></g></g><g fill="#ffffff" fill-opacity="1"><g transform="translate(141.276363, 210.086014)"><g><path d="M 1.109375 0 L 19.953125 -45.78125 L 25.3125 -45.78125 L 44.15625 0 L 38.0625 0 L 33.75 -10.40625 L 11.453125 -10.40625 L 7.265625 0 Z M 13.671875 -15.765625 L 31.59375 -15.765625 L 22.625 -37.734375 Z M 13.671875 -15.765625 "/></g></g></g><g fill="#ffffff" fill-opacity="1"><g transform="translate(186.536868, 210.086014)"><g><path d="M 6.671875 0 L 6.671875 -45.78125 L 12.09375 -45.78125 L 37.40625 -9.9375 L 37.40625 -45.78125 L 43.03125 -45.78125 L 43.03125 0 L 37.671875 0 L 12.359375 -35.84375 L 12.359375 0 Z M 6.671875 0 "/></g></g></g><g fill="#ffffff" fill-opacity="1"><g transform="translate(236.244929, 210.086014)"><g><path d="M 6.671875 0 L 6.671875 -45.78125 L 12.421875 -45.78125 L 12.421875 -26.09375 L 18.96875 -26.09375 C 22.0625 -26.09375 24.394531 -26.648438 25.96875 -27.765625 C 27.539062 -28.878906 28.78125 -30.675781 29.6875 -33.15625 L 34.40625 -45.78125 L 40.484375 -45.78125 L 34.859375 -30.875 C 34.203125 -29.125 33.40625 -27.601562 32.46875 -26.3125 C 31.53125 -25.03125 30.410156 -23.957031 29.109375 -23.09375 L 42.25 0 L 35.578125 0 L 23.75 -21 C 22.300781 -20.738281 20.707031 -20.609375 18.96875 -20.609375 L 12.421875 -20.609375 L 12.421875 0 Z M 6.671875 0 "/></g></g></g><g fill="#ffffff" fill-opacity="1"><g transform="translate(280.982197, 210.086014)"><g><path d="M 36.6875 0 L 36.6875 -20.609375 L 12.421875 -20.609375 L 12.421875 0 L 6.671875 0 L 6.671875 -45.78125 L 12.421875 -45.78125 L 12.421875 -26.09375 L 36.6875 -26.09375 L 36.6875 -45.78125 L 42.453125 -45.78125 L 42.453125 0 Z M 36.6875 0 "/></g></g></g></svg>